<?xml version="1.0" encoding="iso-8859-1"?>
<!-- Uploaded to: SVG Repo, www.svgrepo.com, Generator: SVG Repo Mixer Tools -->
<svg version="1.1" id="Layer_1" xmlns="http://www.w3.org/2000/svg" xmlns:xlink="http://www.w3.org/1999/xlink" 
	 viewBox="0 0 512 512" xml:space="preserve">
<rect x="7.286" y="173.1" style="fill:#FFFFFF;" width="497.43" height="165.81"/>
<path style="fill:#F2A643;" d="M256,210.403c-25.142,0-45.597,20.456-45.597,45.597s20.456,45.597,45.597,45.597
	s45.597-20.456,45.597-45.597S281.142,210.403,256,210.403z"/>
<g>
	<rect x="7.286" y="338.9" style="fill:#3DB4EA;" width="497.43" height="165.81"/>
	<rect x="7.286" y="7.286" style="fill:#3DB4EA;" width="497.43" height="165.81"/>
</g>
<path d="M504.714,0h-66.324c-4.025,0-7.286,3.262-7.286,7.286s3.262,7.287,7.286,7.287h59.037v151.236H14.573V14.573h390.655
	c4.025,0,7.286-3.262,7.286-7.287S409.253,0,405.228,0H7.286C3.262,0,0,3.262,0,7.286v497.427C0,508.738,3.262,512,7.286,512
	h497.427c4.025,0,7.286-3.262,7.286-7.286V7.286C512,3.262,508.738,0,504.714,0z M497.427,180.382v151.235H14.573V180.382H497.427z
	 M14.573,497.427V346.191h482.854v151.236H14.573z"/>
</svg>